G04 #@! TF.GenerationSoftware,KiCad,Pcbnew,(5.0.0-3-g5ebb6b6)*
G04 #@! TF.CreationDate,2018-09-11T22:07:12+09:00*
G04 #@! TF.ProjectId,panelising_topre_pad,70616E656C6973696E675F746F707265,rev?*
G04 #@! TF.SameCoordinates,Original*
G04 #@! TF.FileFunction,Other,ECO2*
%FSLAX46Y46*%
G04 Gerber Fmt 4.6, Leading zero omitted, Abs format (unit mm)*
G04 Created by KiCad (PCBNEW (5.0.0-3-g5ebb6b6)) date 2018 September 11, Tuesday 22:07:12*
%MOMM*%
%LPD*%
G01*
G04 APERTURE LIST*
%ADD10C,0.150000*%
%ADD11C,0.300000*%
G04 APERTURE END LIST*
D10*
X127799594Y-172307416D02*
X130299594Y-177557416D01*
X100299594Y-177557416D02*
X102799594Y-172307416D01*
X105299594Y-177557416D02*
X100299594Y-177557416D01*
X125299594Y-177557416D02*
X127799594Y-172307416D01*
X75299594Y-177557416D02*
X77799594Y-172307416D01*
X80299594Y-177557416D02*
X75299594Y-177557416D01*
X77799594Y-191807416D02*
X77799594Y-172307416D01*
X77799594Y-172307416D02*
X80299594Y-177557416D01*
X130299594Y-177557416D02*
X125299594Y-177557416D01*
X127799594Y-191807416D02*
X127799594Y-172307416D01*
X102799594Y-191807416D02*
X102799594Y-172307416D01*
X102799594Y-172307416D02*
X105299594Y-177557416D01*
D11*
X130871022Y-181771701D02*
X129371022Y-182271701D01*
X130871022Y-182771701D01*
X129942451Y-183271701D02*
X129942451Y-184414558D01*
X129513879Y-185985987D02*
X129442451Y-185914558D01*
X129371022Y-185700273D01*
X129371022Y-185557416D01*
X129442451Y-185343130D01*
X129585308Y-185200273D01*
X129728165Y-185128844D01*
X130013879Y-185057416D01*
X130228165Y-185057416D01*
X130513879Y-185128844D01*
X130656736Y-185200273D01*
X130799594Y-185343130D01*
X130871022Y-185557416D01*
X130871022Y-185700273D01*
X130799594Y-185914558D01*
X130728165Y-185985987D01*
X130871022Y-186628844D02*
X129656736Y-186628844D01*
X129513879Y-186700273D01*
X129442451Y-186771701D01*
X129371022Y-186914558D01*
X129371022Y-187200273D01*
X129442451Y-187343130D01*
X129513879Y-187414558D01*
X129656736Y-187485987D01*
X130871022Y-187485987D01*
X130871022Y-187985987D02*
X130871022Y-188843130D01*
X129371022Y-188414558D02*
X130871022Y-188414558D01*
X105871022Y-181771701D02*
X104371022Y-182271701D01*
X105871022Y-182771701D01*
X104942451Y-183271701D02*
X104942451Y-184414558D01*
X104513879Y-185985987D02*
X104442451Y-185914558D01*
X104371022Y-185700273D01*
X104371022Y-185557416D01*
X104442451Y-185343130D01*
X104585308Y-185200273D01*
X104728165Y-185128844D01*
X105013879Y-185057416D01*
X105228165Y-185057416D01*
X105513879Y-185128844D01*
X105656736Y-185200273D01*
X105799594Y-185343130D01*
X105871022Y-185557416D01*
X105871022Y-185700273D01*
X105799594Y-185914558D01*
X105728165Y-185985987D01*
X105871022Y-186628844D02*
X104656736Y-186628844D01*
X104513879Y-186700273D01*
X104442451Y-186771701D01*
X104371022Y-186914558D01*
X104371022Y-187200273D01*
X104442451Y-187343130D01*
X104513879Y-187414558D01*
X104656736Y-187485987D01*
X105871022Y-187485987D01*
X105871022Y-187985987D02*
X105871022Y-188843130D01*
X104371022Y-188414558D02*
X105871022Y-188414558D01*
X80871022Y-181771701D02*
X79371022Y-182271701D01*
X80871022Y-182771701D01*
X79942451Y-183271701D02*
X79942451Y-184414558D01*
X79513879Y-185985987D02*
X79442451Y-185914558D01*
X79371022Y-185700273D01*
X79371022Y-185557416D01*
X79442451Y-185343130D01*
X79585308Y-185200273D01*
X79728165Y-185128844D01*
X80013879Y-185057416D01*
X80228165Y-185057416D01*
X80513879Y-185128844D01*
X80656736Y-185200273D01*
X80799594Y-185343130D01*
X80871022Y-185557416D01*
X80871022Y-185700273D01*
X80799594Y-185914558D01*
X80728165Y-185985987D01*
X80871022Y-186628844D02*
X79656736Y-186628844D01*
X79513879Y-186700273D01*
X79442451Y-186771701D01*
X79371022Y-186914558D01*
X79371022Y-187200273D01*
X79442451Y-187343130D01*
X79513879Y-187414558D01*
X79656736Y-187485987D01*
X80871022Y-187485987D01*
X80871022Y-187985987D02*
X80871022Y-188843130D01*
X79371022Y-188414558D02*
X80871022Y-188414558D01*
D10*
X178250000Y-67250000D02*
X173000000Y-64750000D01*
X178250000Y-62250000D02*
X178250000Y-67250000D01*
X192500000Y-64750000D02*
X173000000Y-64750000D01*
X173000000Y-64750000D02*
X178250000Y-62250000D01*
D11*
X182464285Y-61678571D02*
X182964285Y-63178571D01*
X183464285Y-61678571D01*
X183964285Y-62607142D02*
X185107142Y-62607142D01*
X186678571Y-63035714D02*
X186607142Y-63107142D01*
X186392857Y-63178571D01*
X186250000Y-63178571D01*
X186035714Y-63107142D01*
X185892857Y-62964285D01*
X185821428Y-62821428D01*
X185750000Y-62535714D01*
X185750000Y-62321428D01*
X185821428Y-62035714D01*
X185892857Y-61892857D01*
X186035714Y-61750000D01*
X186250000Y-61678571D01*
X186392857Y-61678571D01*
X186607142Y-61750000D01*
X186678571Y-61821428D01*
X187321428Y-61678571D02*
X187321428Y-62892857D01*
X187392857Y-63035714D01*
X187464285Y-63107142D01*
X187607142Y-63178571D01*
X187892857Y-63178571D01*
X188035714Y-63107142D01*
X188107142Y-63035714D01*
X188178571Y-62892857D01*
X188178571Y-61678571D01*
X188678571Y-61678571D02*
X189535714Y-61678571D01*
X189107142Y-63178571D02*
X189107142Y-61678571D01*
D10*
X178250000Y-97250000D02*
X173000000Y-94750000D01*
X178250000Y-92250000D02*
X178250000Y-97250000D01*
X192500000Y-94750000D02*
X173000000Y-94750000D01*
X173000000Y-94750000D02*
X178250000Y-92250000D01*
D11*
X182464285Y-91678571D02*
X182964285Y-93178571D01*
X183464285Y-91678571D01*
X183964285Y-92607142D02*
X185107142Y-92607142D01*
X186678571Y-93035714D02*
X186607142Y-93107142D01*
X186392857Y-93178571D01*
X186250000Y-93178571D01*
X186035714Y-93107142D01*
X185892857Y-92964285D01*
X185821428Y-92821428D01*
X185750000Y-92535714D01*
X185750000Y-92321428D01*
X185821428Y-92035714D01*
X185892857Y-91892857D01*
X186035714Y-91750000D01*
X186250000Y-91678571D01*
X186392857Y-91678571D01*
X186607142Y-91750000D01*
X186678571Y-91821428D01*
X187321428Y-91678571D02*
X187321428Y-92892857D01*
X187392857Y-93035714D01*
X187464285Y-93107142D01*
X187607142Y-93178571D01*
X187892857Y-93178571D01*
X188035714Y-93107142D01*
X188107142Y-93035714D01*
X188178571Y-92892857D01*
X188178571Y-91678571D01*
X188678571Y-91678571D02*
X189535714Y-91678571D01*
X189107142Y-93178571D02*
X189107142Y-91678571D01*
D10*
X178250000Y-127250000D02*
X173000000Y-124750000D01*
X178250000Y-122250000D02*
X178250000Y-127250000D01*
X192500000Y-124750000D02*
X173000000Y-124750000D01*
X173000000Y-124750000D02*
X178250000Y-122250000D01*
D11*
X182464285Y-121678571D02*
X182964285Y-123178571D01*
X183464285Y-121678571D01*
X183964285Y-122607142D02*
X185107142Y-122607142D01*
X186678571Y-123035714D02*
X186607142Y-123107142D01*
X186392857Y-123178571D01*
X186250000Y-123178571D01*
X186035714Y-123107142D01*
X185892857Y-122964285D01*
X185821428Y-122821428D01*
X185750000Y-122535714D01*
X185750000Y-122321428D01*
X185821428Y-122035714D01*
X185892857Y-121892857D01*
X186035714Y-121750000D01*
X186250000Y-121678571D01*
X186392857Y-121678571D01*
X186607142Y-121750000D01*
X186678571Y-121821428D01*
X187321428Y-121678571D02*
X187321428Y-122892857D01*
X187392857Y-123035714D01*
X187464285Y-123107142D01*
X187607142Y-123178571D01*
X187892857Y-123178571D01*
X188035714Y-123107142D01*
X188107142Y-123035714D01*
X188178571Y-122892857D01*
X188178571Y-121678571D01*
X188678571Y-121678571D02*
X189535714Y-121678571D01*
X189107142Y-123178571D02*
X189107142Y-121678571D01*
X182464285Y-151678571D02*
X182964285Y-153178571D01*
X183464285Y-151678571D01*
X183964285Y-152607142D02*
X185107142Y-152607142D01*
X186678571Y-153035714D02*
X186607142Y-153107142D01*
X186392857Y-153178571D01*
X186250000Y-153178571D01*
X186035714Y-153107142D01*
X185892857Y-152964285D01*
X185821428Y-152821428D01*
X185750000Y-152535714D01*
X185750000Y-152321428D01*
X185821428Y-152035714D01*
X185892857Y-151892857D01*
X186035714Y-151750000D01*
X186250000Y-151678571D01*
X186392857Y-151678571D01*
X186607142Y-151750000D01*
X186678571Y-151821428D01*
X187321428Y-151678571D02*
X187321428Y-152892857D01*
X187392857Y-153035714D01*
X187464285Y-153107142D01*
X187607142Y-153178571D01*
X187892857Y-153178571D01*
X188035714Y-153107142D01*
X188107142Y-153035714D01*
X188178571Y-152892857D01*
X188178571Y-151678571D01*
X188678571Y-151678571D02*
X189535714Y-151678571D01*
X189107142Y-153178571D02*
X189107142Y-151678571D01*
D10*
X178250000Y-157250000D02*
X173000000Y-154750000D01*
X178250000Y-152250000D02*
X178250000Y-157250000D01*
X173000000Y-154750000D02*
X178250000Y-152250000D01*
X192500000Y-154750000D02*
X173000000Y-154750000D01*
X127750000Y-49750000D02*
X127750000Y-169750000D01*
X102750000Y-49750000D02*
X102750000Y-169750000D01*
X77750000Y-49750000D02*
X77750000Y-169750000D01*
X152750000Y-159750000D02*
X52750000Y-159750000D01*
X163000000Y-154750000D02*
X43000000Y-154750000D01*
X162750000Y-124750000D02*
X42750000Y-124750000D01*
X162750000Y-94750000D02*
X42750000Y-94750000D01*
X162750000Y-64750000D02*
X42750000Y-64750000D01*
X152750000Y-59750000D02*
X52750000Y-59750000D01*
X152750000Y-59750000D02*
X152750000Y-159750000D01*
X52750000Y-59750000D02*
X52750000Y-159750000D01*
M02*
