G04 #@! TF.GenerationSoftware,KiCad,Pcbnew,(5.0.0-3-g5ebb6b6)*
G04 #@! TF.CreationDate,2018-09-11T22:07:12+09:00*
G04 #@! TF.ProjectId,panelising_topre_pad,70616E656C6973696E675F746F707265,rev?*
G04 #@! TF.SameCoordinates,Original*
G04 #@! TF.FileFunction,Legend,Top*
G04 #@! TF.FilePolarity,Positive*
%FSLAX46Y46*%
G04 Gerber Fmt 4.6, Leading zero omitted, Abs format (unit mm)*
G04 Created by KiCad (PCBNEW (5.0.0-3-g5ebb6b6)) date 2018 September 11, Tuesday 22:07:12*
%MOMM*%
%LPD*%
G01*
G04 APERTURE LIST*
%ADD10C,0.100000*%
%ADD11C,0.120000*%
G04 APERTURE END LIST*
D10*
X74750000Y-94750000D02*
X74750000Y-75750000D01*
X55750000Y-94750000D02*
X55750000Y-75750000D01*
X52750000Y-75750000D02*
X77750000Y-75750000D01*
X99750000Y-94750000D02*
X99750000Y-75750000D01*
X80750000Y-94750000D02*
X80750000Y-75750000D01*
X77750000Y-75750000D02*
X102750000Y-75750000D01*
X124750000Y-94750000D02*
X124750000Y-75750000D01*
X105750000Y-94750000D02*
X105750000Y-75750000D01*
X102750000Y-75750000D02*
X127750000Y-75750000D01*
X74750000Y-124750000D02*
X74750000Y-105750000D01*
X55750000Y-124750000D02*
X55750000Y-105750000D01*
X52750000Y-105750000D02*
X77750000Y-105750000D01*
X99750000Y-124750000D02*
X99750000Y-105750000D01*
X80750000Y-124750000D02*
X80750000Y-105750000D01*
X77750000Y-105750000D02*
X102750000Y-105750000D01*
X124750000Y-124750000D02*
X124750000Y-105750000D01*
X105750000Y-124750000D02*
X105750000Y-105750000D01*
X102750000Y-105750000D02*
X127750000Y-105750000D01*
X149750000Y-94750000D02*
X149750000Y-75750000D01*
X130750000Y-94750000D02*
X130750000Y-75750000D01*
X127750000Y-75750000D02*
X152750000Y-75750000D01*
X149750000Y-124750000D02*
X149750000Y-105750000D01*
X130750000Y-124750000D02*
X130750000Y-105750000D01*
X127750000Y-105750000D02*
X152750000Y-105750000D01*
X74750000Y-154750000D02*
X74750000Y-135750000D01*
X55750000Y-154750000D02*
X55750000Y-135750000D01*
X52750000Y-135750000D02*
X77750000Y-135750000D01*
X99750000Y-154750000D02*
X99750000Y-135750000D01*
X80750000Y-154750000D02*
X80750000Y-135750000D01*
X77750000Y-135750000D02*
X102750000Y-135750000D01*
X124750000Y-154750000D02*
X124750000Y-135750000D01*
X105750000Y-154750000D02*
X105750000Y-135750000D01*
X102750000Y-135750000D02*
X127750000Y-135750000D01*
X149750000Y-154750000D02*
X149750000Y-135750000D01*
X130750000Y-154750000D02*
X130750000Y-135750000D01*
X127750000Y-135750000D02*
X152750000Y-135750000D01*
D11*
G04 #@! TO.C,REF\002A\002A*
X76700000Y-80500000D02*
G75*
G03X76700000Y-80500000I-950000J0D01*
G01*
X55700000Y-92750000D02*
G75*
G03X55700000Y-92750000I-950000J0D01*
G01*
X56200000Y-90800000D02*
X56200000Y-89400000D01*
X57600000Y-90800000D02*
X56200000Y-90800000D01*
X57600000Y-89400000D02*
X57600000Y-90800000D01*
X56200000Y-89400000D02*
X57600000Y-89400000D01*
X75076000Y-78704000D02*
X75076000Y-76804000D01*
X76976000Y-78704000D02*
X75076000Y-78704000D01*
X76976000Y-76804000D02*
X76976000Y-78704000D01*
X75076000Y-76804000D02*
X76976000Y-76804000D01*
X101700000Y-80500000D02*
G75*
G03X101700000Y-80500000I-950000J0D01*
G01*
X80700000Y-92750000D02*
G75*
G03X80700000Y-92750000I-950000J0D01*
G01*
X81200000Y-90800000D02*
X81200000Y-89400000D01*
X82600000Y-90800000D02*
X81200000Y-90800000D01*
X82600000Y-89400000D02*
X82600000Y-90800000D01*
X81200000Y-89400000D02*
X82600000Y-89400000D01*
X100076000Y-78704000D02*
X100076000Y-76804000D01*
X101976000Y-78704000D02*
X100076000Y-78704000D01*
X101976000Y-76804000D02*
X101976000Y-78704000D01*
X100076000Y-76804000D02*
X101976000Y-76804000D01*
X126700000Y-80500000D02*
G75*
G03X126700000Y-80500000I-950000J0D01*
G01*
X105700000Y-92750000D02*
G75*
G03X105700000Y-92750000I-950000J0D01*
G01*
X106200000Y-90800000D02*
X106200000Y-89400000D01*
X107600000Y-90800000D02*
X106200000Y-90800000D01*
X107600000Y-89400000D02*
X107600000Y-90800000D01*
X106200000Y-89400000D02*
X107600000Y-89400000D01*
X125076000Y-78704000D02*
X125076000Y-76804000D01*
X126976000Y-78704000D02*
X125076000Y-78704000D01*
X126976000Y-76804000D02*
X126976000Y-78704000D01*
X125076000Y-76804000D02*
X126976000Y-76804000D01*
X76700000Y-110500000D02*
G75*
G03X76700000Y-110500000I-950000J0D01*
G01*
X55700000Y-122750000D02*
G75*
G03X55700000Y-122750000I-950000J0D01*
G01*
X56200000Y-120800000D02*
X56200000Y-119400000D01*
X57600000Y-120800000D02*
X56200000Y-120800000D01*
X57600000Y-119400000D02*
X57600000Y-120800000D01*
X56200000Y-119400000D02*
X57600000Y-119400000D01*
X75076000Y-108704000D02*
X75076000Y-106804000D01*
X76976000Y-108704000D02*
X75076000Y-108704000D01*
X76976000Y-106804000D02*
X76976000Y-108704000D01*
X75076000Y-106804000D02*
X76976000Y-106804000D01*
X101700000Y-110500000D02*
G75*
G03X101700000Y-110500000I-950000J0D01*
G01*
X80700000Y-122750000D02*
G75*
G03X80700000Y-122750000I-950000J0D01*
G01*
X81200000Y-120800000D02*
X81200000Y-119400000D01*
X82600000Y-120800000D02*
X81200000Y-120800000D01*
X82600000Y-119400000D02*
X82600000Y-120800000D01*
X81200000Y-119400000D02*
X82600000Y-119400000D01*
X100076000Y-108704000D02*
X100076000Y-106804000D01*
X101976000Y-108704000D02*
X100076000Y-108704000D01*
X101976000Y-106804000D02*
X101976000Y-108704000D01*
X100076000Y-106804000D02*
X101976000Y-106804000D01*
X126700000Y-110500000D02*
G75*
G03X126700000Y-110500000I-950000J0D01*
G01*
X105700000Y-122750000D02*
G75*
G03X105700000Y-122750000I-950000J0D01*
G01*
X106200000Y-120800000D02*
X106200000Y-119400000D01*
X107600000Y-120800000D02*
X106200000Y-120800000D01*
X107600000Y-119400000D02*
X107600000Y-120800000D01*
X106200000Y-119400000D02*
X107600000Y-119400000D01*
X125076000Y-108704000D02*
X125076000Y-106804000D01*
X126976000Y-108704000D02*
X125076000Y-108704000D01*
X126976000Y-106804000D02*
X126976000Y-108704000D01*
X125076000Y-106804000D02*
X126976000Y-106804000D01*
X151700000Y-80500000D02*
G75*
G03X151700000Y-80500000I-950000J0D01*
G01*
X130700000Y-92750000D02*
G75*
G03X130700000Y-92750000I-950000J0D01*
G01*
X131200000Y-90800000D02*
X131200000Y-89400000D01*
X132600000Y-90800000D02*
X131200000Y-90800000D01*
X132600000Y-89400000D02*
X132600000Y-90800000D01*
X131200000Y-89400000D02*
X132600000Y-89400000D01*
X150076000Y-78704000D02*
X150076000Y-76804000D01*
X151976000Y-78704000D02*
X150076000Y-78704000D01*
X151976000Y-76804000D02*
X151976000Y-78704000D01*
X150076000Y-76804000D02*
X151976000Y-76804000D01*
X151700000Y-110500000D02*
G75*
G03X151700000Y-110500000I-950000J0D01*
G01*
X130700000Y-122750000D02*
G75*
G03X130700000Y-122750000I-950000J0D01*
G01*
X131200000Y-120800000D02*
X131200000Y-119400000D01*
X132600000Y-120800000D02*
X131200000Y-120800000D01*
X132600000Y-119400000D02*
X132600000Y-120800000D01*
X131200000Y-119400000D02*
X132600000Y-119400000D01*
X150076000Y-108704000D02*
X150076000Y-106804000D01*
X151976000Y-108704000D02*
X150076000Y-108704000D01*
X151976000Y-106804000D02*
X151976000Y-108704000D01*
X150076000Y-106804000D02*
X151976000Y-106804000D01*
X76700000Y-140500000D02*
G75*
G03X76700000Y-140500000I-950000J0D01*
G01*
X55700000Y-152750000D02*
G75*
G03X55700000Y-152750000I-950000J0D01*
G01*
X56200000Y-150800000D02*
X56200000Y-149400000D01*
X57600000Y-150800000D02*
X56200000Y-150800000D01*
X57600000Y-149400000D02*
X57600000Y-150800000D01*
X56200000Y-149400000D02*
X57600000Y-149400000D01*
X75076000Y-138704000D02*
X75076000Y-136804000D01*
X76976000Y-138704000D02*
X75076000Y-138704000D01*
X76976000Y-136804000D02*
X76976000Y-138704000D01*
X75076000Y-136804000D02*
X76976000Y-136804000D01*
X101700000Y-140500000D02*
G75*
G03X101700000Y-140500000I-950000J0D01*
G01*
X80700000Y-152750000D02*
G75*
G03X80700000Y-152750000I-950000J0D01*
G01*
X81200000Y-150800000D02*
X81200000Y-149400000D01*
X82600000Y-150800000D02*
X81200000Y-150800000D01*
X82600000Y-149400000D02*
X82600000Y-150800000D01*
X81200000Y-149400000D02*
X82600000Y-149400000D01*
X100076000Y-138704000D02*
X100076000Y-136804000D01*
X101976000Y-138704000D02*
X100076000Y-138704000D01*
X101976000Y-136804000D02*
X101976000Y-138704000D01*
X100076000Y-136804000D02*
X101976000Y-136804000D01*
X126700000Y-140500000D02*
G75*
G03X126700000Y-140500000I-950000J0D01*
G01*
X105700000Y-152750000D02*
G75*
G03X105700000Y-152750000I-950000J0D01*
G01*
X106200000Y-150800000D02*
X106200000Y-149400000D01*
X107600000Y-150800000D02*
X106200000Y-150800000D01*
X107600000Y-149400000D02*
X107600000Y-150800000D01*
X106200000Y-149400000D02*
X107600000Y-149400000D01*
X125076000Y-138704000D02*
X125076000Y-136804000D01*
X126976000Y-138704000D02*
X125076000Y-138704000D01*
X126976000Y-136804000D02*
X126976000Y-138704000D01*
X125076000Y-136804000D02*
X126976000Y-136804000D01*
X151700000Y-140500000D02*
G75*
G03X151700000Y-140500000I-950000J0D01*
G01*
X130700000Y-152750000D02*
G75*
G03X130700000Y-152750000I-950000J0D01*
G01*
X131200000Y-150800000D02*
X131200000Y-149400000D01*
X132600000Y-150800000D02*
X131200000Y-150800000D01*
X132600000Y-149400000D02*
X132600000Y-150800000D01*
X131200000Y-149400000D02*
X132600000Y-149400000D01*
X150076000Y-138704000D02*
X150076000Y-136804000D01*
X151976000Y-138704000D02*
X150076000Y-138704000D01*
X151976000Y-136804000D02*
X151976000Y-138704000D01*
X150076000Y-136804000D02*
X151976000Y-136804000D01*
G04 #@! TD*
M02*
