M48
;DRILL file {KiCad (5.0.0-3-g5ebb6b6)} date 2018 September 11, Tuesday 22:01:06
;FORMAT={3:3/ absolute / metric / suppress leading zeros}
FMAT,2
METRIC,TZ
T1C0.400
T2C0.700
T3C0.850
T4C1.016
T5C2.200
%
G90
G05
M71
T1
X54500Y-77500
X54500Y-89000
X54500Y-107500
X54500Y-119000
X54500Y-137500
X54500Y-149000
X54526Y-68504
X54526Y-73004
X54526Y-82004
X54526Y-98504
X54526Y-103004
X54526Y-112004
X54526Y-128504
X54526Y-133004
X54526Y-142004
X57750Y-80500
X57750Y-110500
X57750Y-140500
X59000Y-68500
X59000Y-73004
X59000Y-98500
X59000Y-103004
X59000Y-128500
X59000Y-133004
X61000Y-77500
X61000Y-107500
X61000Y-137500
X62250Y-93000
X62250Y-123000
X62250Y-153000
X68276Y-73004
X68276Y-103004
X68276Y-133004
X68750Y-77500
X68750Y-77500
X68750Y-77500
X68750Y-107500
X68750Y-107500
X68750Y-107500
X68750Y-137500
X68750Y-137500
X68750Y-137500
X69000Y-93000
X69000Y-123000
X69000Y-153000
X71500Y-68250
X71500Y-98250
X71500Y-128250
X73000Y-82500
X73000Y-89000
X73000Y-112500
X73000Y-119000
X73000Y-142500
X73000Y-149000
X75776Y-91500
X75776Y-121500
X75776Y-151500
X76026Y-68254
X76026Y-73004
X76026Y-98254
X76026Y-103004
X76026Y-128254
X76026Y-133004
X79500Y-77500
X79500Y-89000
X79500Y-107500
X79500Y-119000
X79500Y-137500
X79500Y-149000
X79526Y-68504
X79526Y-73004
X79526Y-82004
X79526Y-98504
X79526Y-103004
X79526Y-112004
X79526Y-128504
X79526Y-133004
X79526Y-142004
X82750Y-80500
X82750Y-110500
X82750Y-140500
X84000Y-68500
X84000Y-73004
X84000Y-98500
X84000Y-103004
X84000Y-128500
X84000Y-133004
X86000Y-77500
X86000Y-107500
X86000Y-137500
X87250Y-93000
X87250Y-123000
X87250Y-153000
X93276Y-73004
X93276Y-103004
X93276Y-133004
X93750Y-77500
X93750Y-77500
X93750Y-77500
X93750Y-107500
X93750Y-107500
X93750Y-107500
X93750Y-137500
X93750Y-137500
X93750Y-137500
X94000Y-93000
X94000Y-123000
X94000Y-153000
X96500Y-68250
X96500Y-98250
X96500Y-128250
X98000Y-82500
X98000Y-89000
X98000Y-112500
X98000Y-119000
X98000Y-142500
X98000Y-149000
X100776Y-91500
X100776Y-121500
X100776Y-151500
X101026Y-68254
X101026Y-73004
X101026Y-98254
X101026Y-103004
X101026Y-128254
X101026Y-133004
X104500Y-77500
X104500Y-89000
X104500Y-107500
X104500Y-119000
X104500Y-137500
X104500Y-149000
X104526Y-68504
X104526Y-73004
X104526Y-82004
X104526Y-98504
X104526Y-103004
X104526Y-112004
X104526Y-128504
X104526Y-133004
X104526Y-142004
X107750Y-80500
X107750Y-110500
X107750Y-140500
X109000Y-68500
X109000Y-73004
X109000Y-98500
X109000Y-103004
X109000Y-128500
X109000Y-133004
X111000Y-77500
X111000Y-107500
X111000Y-137500
X112250Y-93000
X112250Y-123000
X112250Y-153000
X118276Y-73004
X118276Y-103004
X118276Y-133004
X118750Y-77500
X118750Y-77500
X118750Y-77500
X118750Y-107500
X118750Y-107500
X118750Y-107500
X118750Y-137500
X118750Y-137500
X118750Y-137500
X119000Y-93000
X119000Y-123000
X119000Y-153000
X121500Y-68250
X121500Y-98250
X121500Y-128250
X123000Y-82500
X123000Y-89000
X123000Y-112500
X123000Y-119000
X123000Y-142500
X123000Y-149000
X125776Y-91500
X125776Y-121500
X125776Y-151500
X126026Y-68254
X126026Y-73004
X126026Y-98254
X126026Y-103004
X126026Y-128254
X126026Y-133004
X129500Y-77500
X129500Y-89000
X129500Y-107500
X129500Y-119000
X129500Y-137500
X129500Y-149000
X129526Y-68504
X129526Y-73004
X129526Y-82004
X129526Y-98504
X129526Y-103004
X129526Y-112004
X129526Y-128504
X129526Y-133004
X129526Y-142004
X132750Y-80500
X132750Y-110500
X132750Y-140500
X134000Y-68500
X134000Y-73004
X134000Y-98500
X134000Y-103004
X134000Y-128500
X134000Y-133004
X136000Y-77500
X136000Y-107500
X136000Y-137500
X137250Y-93000
X137250Y-123000
X137250Y-153000
X143276Y-73004
X143276Y-103004
X143276Y-133004
X143750Y-77500
X143750Y-77500
X143750Y-77500
X143750Y-107500
X143750Y-107500
X143750Y-107500
X143750Y-137500
X143750Y-137500
X143750Y-137500
X144000Y-93000
X144000Y-123000
X144000Y-153000
X146500Y-68250
X146500Y-98250
X146500Y-128250
X148000Y-82500
X148000Y-89000
X148000Y-112500
X148000Y-119000
X148000Y-142500
X148000Y-149000
X150776Y-91500
X150776Y-121500
X150776Y-151500
X151026Y-68254
X151026Y-73004
X151026Y-98254
X151026Y-103004
X151026Y-128254
X151026Y-133004
T2
X101026Y-137754
X126026Y-107754
X151026Y-77754
X151026Y-137754
X76026Y-137754
X76026Y-77754
X126026Y-137754
X76026Y-107754
X126026Y-77754
X151026Y-107754
X101026Y-107754
X101026Y-77754
T3
X113950Y-145250
X116550Y-145250
X63950Y-115250
X66550Y-115250
X88950Y-85250
X91550Y-85250
X113950Y-85250
X116550Y-85250
X138950Y-115250
X141550Y-115250
X113950Y-115250
X116550Y-115250
X138950Y-85250
X141550Y-85250
X63950Y-145250
X66550Y-145250
X63950Y-85250
X66550Y-85250
X138950Y-145250
X141550Y-145250
X88950Y-145250
X91550Y-145250
X88950Y-115250
X91550Y-115250
T4
X87750Y-98500
X67750Y-98500
X115276Y-68504
X58200Y-92200
X108200Y-152200
X112750Y-98500
X147200Y-78450
X112750Y-68500
X137750Y-98500
X142750Y-68500
X67750Y-68500
X65276Y-128504
X62750Y-98500
X108200Y-92200
X137750Y-128500
X65276Y-98504
X137750Y-68500
X90276Y-98504
X122200Y-138450
X58200Y-152200
X122200Y-78450
X72200Y-78450
X92750Y-128500
X117750Y-128500
X62750Y-68500
X58200Y-122200
X83200Y-122200
X90276Y-68504
X72200Y-138450
X142750Y-128500
X117750Y-68500
X87750Y-128500
X83200Y-152200
X147200Y-108450
X115276Y-98504
X72200Y-108450
X112750Y-128500
X140276Y-98504
X92750Y-68500
X97200Y-108450
X83200Y-92200
X97200Y-138450
X108200Y-122200
X140276Y-128504
X67750Y-128500
X133200Y-122200
X140276Y-68504
X97200Y-78450
X90276Y-128504
X92750Y-98500
X62750Y-128500
X122200Y-108450
X133200Y-152200
X65276Y-68504
X115276Y-128504
X117750Y-98500
X133200Y-92200
X142750Y-98500
X147200Y-138450
X87750Y-68500
T5
X80750Y-145250
X74775Y-85250
X55750Y-145250
X124775Y-85250
X105750Y-145250
X74775Y-145250
X105750Y-85250
X74775Y-115250
X99775Y-115250
X80750Y-85250
X80750Y-115250
X105750Y-115250
X130750Y-115250
X99775Y-85250
X124775Y-145250
X55750Y-115250
X99775Y-145250
X124775Y-115250
X130750Y-145250
X149775Y-115250
X130750Y-85250
X149775Y-145250
X55750Y-85250
X149775Y-85250
T0
M30
