G04 #@! TF.GenerationSoftware,KiCad,Pcbnew,(5.0.0-3-g5ebb6b6)*
G04 #@! TF.CreationDate,2018-09-11T22:55:40+09:00*
G04 #@! TF.ProjectId,panelising_topre_pad_elecrow,70616E656C6973696E675F746F707265,rev?*
G04 #@! TF.SameCoordinates,Original*
G04 #@! TF.FileFunction,Other,ECO2*
%FSLAX46Y46*%
G04 Gerber Fmt 4.6, Leading zero omitted, Abs format (unit mm)*
G04 Created by KiCad (PCBNEW (5.0.0-3-g5ebb6b6)) date 2018 September 11, Tuesday 22:55:40*
%MOMM*%
%LPD*%
G01*
G04 APERTURE LIST*
%ADD10C,0.150000*%
%ADD11C,0.300000*%
G04 APERTURE END LIST*
D10*
X127799594Y-162057416D02*
X130299594Y-167307416D01*
X100299594Y-167307416D02*
X102799594Y-162057416D01*
X105299594Y-167307416D02*
X100299594Y-167307416D01*
X125299594Y-167307416D02*
X127799594Y-162057416D01*
X75299594Y-167307416D02*
X77799594Y-162057416D01*
X80299594Y-167307416D02*
X75299594Y-167307416D01*
X77799594Y-181557416D02*
X77799594Y-162057416D01*
X77799594Y-162057416D02*
X80299594Y-167307416D01*
X130299594Y-167307416D02*
X125299594Y-167307416D01*
X127799594Y-181557416D02*
X127799594Y-162057416D01*
X102799594Y-181557416D02*
X102799594Y-162057416D01*
X102799594Y-162057416D02*
X105299594Y-167307416D01*
D11*
X130871022Y-171521701D02*
X129371022Y-172021701D01*
X130871022Y-172521701D01*
X129942451Y-173021701D02*
X129942451Y-174164558D01*
X129513879Y-175735987D02*
X129442451Y-175664558D01*
X129371022Y-175450273D01*
X129371022Y-175307416D01*
X129442451Y-175093130D01*
X129585308Y-174950273D01*
X129728165Y-174878844D01*
X130013879Y-174807416D01*
X130228165Y-174807416D01*
X130513879Y-174878844D01*
X130656736Y-174950273D01*
X130799594Y-175093130D01*
X130871022Y-175307416D01*
X130871022Y-175450273D01*
X130799594Y-175664558D01*
X130728165Y-175735987D01*
X130871022Y-176378844D02*
X129656736Y-176378844D01*
X129513879Y-176450273D01*
X129442451Y-176521701D01*
X129371022Y-176664558D01*
X129371022Y-176950273D01*
X129442451Y-177093130D01*
X129513879Y-177164558D01*
X129656736Y-177235987D01*
X130871022Y-177235987D01*
X130871022Y-177735987D02*
X130871022Y-178593130D01*
X129371022Y-178164558D02*
X130871022Y-178164558D01*
X105871022Y-171521701D02*
X104371022Y-172021701D01*
X105871022Y-172521701D01*
X104942451Y-173021701D02*
X104942451Y-174164558D01*
X104513879Y-175735987D02*
X104442451Y-175664558D01*
X104371022Y-175450273D01*
X104371022Y-175307416D01*
X104442451Y-175093130D01*
X104585308Y-174950273D01*
X104728165Y-174878844D01*
X105013879Y-174807416D01*
X105228165Y-174807416D01*
X105513879Y-174878844D01*
X105656736Y-174950273D01*
X105799594Y-175093130D01*
X105871022Y-175307416D01*
X105871022Y-175450273D01*
X105799594Y-175664558D01*
X105728165Y-175735987D01*
X105871022Y-176378844D02*
X104656736Y-176378844D01*
X104513879Y-176450273D01*
X104442451Y-176521701D01*
X104371022Y-176664558D01*
X104371022Y-176950273D01*
X104442451Y-177093130D01*
X104513879Y-177164558D01*
X104656736Y-177235987D01*
X105871022Y-177235987D01*
X105871022Y-177735987D02*
X105871022Y-178593130D01*
X104371022Y-178164558D02*
X105871022Y-178164558D01*
X80871022Y-171521701D02*
X79371022Y-172021701D01*
X80871022Y-172521701D01*
X79942451Y-173021701D02*
X79942451Y-174164558D01*
X79513879Y-175735987D02*
X79442451Y-175664558D01*
X79371022Y-175450273D01*
X79371022Y-175307416D01*
X79442451Y-175093130D01*
X79585308Y-174950273D01*
X79728165Y-174878844D01*
X80013879Y-174807416D01*
X80228165Y-174807416D01*
X80513879Y-174878844D01*
X80656736Y-174950273D01*
X80799594Y-175093130D01*
X80871022Y-175307416D01*
X80871022Y-175450273D01*
X80799594Y-175664558D01*
X80728165Y-175735987D01*
X80871022Y-176378844D02*
X79656736Y-176378844D01*
X79513879Y-176450273D01*
X79442451Y-176521701D01*
X79371022Y-176664558D01*
X79371022Y-176950273D01*
X79442451Y-177093130D01*
X79513879Y-177164558D01*
X79656736Y-177235987D01*
X80871022Y-177235987D01*
X80871022Y-177735987D02*
X80871022Y-178593130D01*
X79371022Y-178164558D02*
X80871022Y-178164558D01*
D10*
X161500000Y-67250000D02*
X156250000Y-64750000D01*
X161500000Y-62250000D02*
X161500000Y-67250000D01*
X175750000Y-64750000D02*
X156250000Y-64750000D01*
X156250000Y-64750000D02*
X161500000Y-62250000D01*
D11*
X165714285Y-61678571D02*
X166214285Y-63178571D01*
X166714285Y-61678571D01*
X167214285Y-62607142D02*
X168357142Y-62607142D01*
X169928571Y-63035714D02*
X169857142Y-63107142D01*
X169642857Y-63178571D01*
X169500000Y-63178571D01*
X169285714Y-63107142D01*
X169142857Y-62964285D01*
X169071428Y-62821428D01*
X169000000Y-62535714D01*
X169000000Y-62321428D01*
X169071428Y-62035714D01*
X169142857Y-61892857D01*
X169285714Y-61750000D01*
X169500000Y-61678571D01*
X169642857Y-61678571D01*
X169857142Y-61750000D01*
X169928571Y-61821428D01*
X170571428Y-61678571D02*
X170571428Y-62892857D01*
X170642857Y-63035714D01*
X170714285Y-63107142D01*
X170857142Y-63178571D01*
X171142857Y-63178571D01*
X171285714Y-63107142D01*
X171357142Y-63035714D01*
X171428571Y-62892857D01*
X171428571Y-61678571D01*
X171928571Y-61678571D02*
X172785714Y-61678571D01*
X172357142Y-63178571D02*
X172357142Y-61678571D01*
D10*
X161500000Y-97250000D02*
X156250000Y-94750000D01*
X161500000Y-92250000D02*
X161500000Y-97250000D01*
X175750000Y-94750000D02*
X156250000Y-94750000D01*
X156250000Y-94750000D02*
X161500000Y-92250000D01*
D11*
X165714285Y-91678571D02*
X166214285Y-93178571D01*
X166714285Y-91678571D01*
X167214285Y-92607142D02*
X168357142Y-92607142D01*
X169928571Y-93035714D02*
X169857142Y-93107142D01*
X169642857Y-93178571D01*
X169500000Y-93178571D01*
X169285714Y-93107142D01*
X169142857Y-92964285D01*
X169071428Y-92821428D01*
X169000000Y-92535714D01*
X169000000Y-92321428D01*
X169071428Y-92035714D01*
X169142857Y-91892857D01*
X169285714Y-91750000D01*
X169500000Y-91678571D01*
X169642857Y-91678571D01*
X169857142Y-91750000D01*
X169928571Y-91821428D01*
X170571428Y-91678571D02*
X170571428Y-92892857D01*
X170642857Y-93035714D01*
X170714285Y-93107142D01*
X170857142Y-93178571D01*
X171142857Y-93178571D01*
X171285714Y-93107142D01*
X171357142Y-93035714D01*
X171428571Y-92892857D01*
X171428571Y-91678571D01*
X171928571Y-91678571D02*
X172785714Y-91678571D01*
X172357142Y-93178571D02*
X172357142Y-91678571D01*
D10*
X161500000Y-127250000D02*
X156250000Y-124750000D01*
X161500000Y-122250000D02*
X161500000Y-127250000D01*
X175750000Y-124750000D02*
X156250000Y-124750000D01*
X156250000Y-124750000D02*
X161500000Y-122250000D01*
D11*
X165714285Y-121678571D02*
X166214285Y-123178571D01*
X166714285Y-121678571D01*
X167214285Y-122607142D02*
X168357142Y-122607142D01*
X169928571Y-123035714D02*
X169857142Y-123107142D01*
X169642857Y-123178571D01*
X169500000Y-123178571D01*
X169285714Y-123107142D01*
X169142857Y-122964285D01*
X169071428Y-122821428D01*
X169000000Y-122535714D01*
X169000000Y-122321428D01*
X169071428Y-122035714D01*
X169142857Y-121892857D01*
X169285714Y-121750000D01*
X169500000Y-121678571D01*
X169642857Y-121678571D01*
X169857142Y-121750000D01*
X169928571Y-121821428D01*
X170571428Y-121678571D02*
X170571428Y-122892857D01*
X170642857Y-123035714D01*
X170714285Y-123107142D01*
X170857142Y-123178571D01*
X171142857Y-123178571D01*
X171285714Y-123107142D01*
X171357142Y-123035714D01*
X171428571Y-122892857D01*
X171428571Y-121678571D01*
X171928571Y-121678571D02*
X172785714Y-121678571D01*
X172357142Y-123178571D02*
X172357142Y-121678571D01*
X165714285Y-151678571D02*
X166214285Y-153178571D01*
X166714285Y-151678571D01*
X167214285Y-152607142D02*
X168357142Y-152607142D01*
X169928571Y-153035714D02*
X169857142Y-153107142D01*
X169642857Y-153178571D01*
X169500000Y-153178571D01*
X169285714Y-153107142D01*
X169142857Y-152964285D01*
X169071428Y-152821428D01*
X169000000Y-152535714D01*
X169000000Y-152321428D01*
X169071428Y-152035714D01*
X169142857Y-151892857D01*
X169285714Y-151750000D01*
X169500000Y-151678571D01*
X169642857Y-151678571D01*
X169857142Y-151750000D01*
X169928571Y-151821428D01*
X170571428Y-151678571D02*
X170571428Y-152892857D01*
X170642857Y-153035714D01*
X170714285Y-153107142D01*
X170857142Y-153178571D01*
X171142857Y-153178571D01*
X171285714Y-153107142D01*
X171357142Y-153035714D01*
X171428571Y-152892857D01*
X171428571Y-151678571D01*
X171928571Y-151678571D02*
X172785714Y-151678571D01*
X172357142Y-153178571D02*
X172357142Y-151678571D01*
D10*
X161500000Y-157250000D02*
X156250000Y-154750000D01*
X161500000Y-152250000D02*
X161500000Y-157250000D01*
X156250000Y-154750000D02*
X161500000Y-152250000D01*
X175750000Y-154750000D02*
X156250000Y-154750000D01*
X128000000Y-59750000D02*
X127750000Y-159750000D01*
X102750000Y-59750000D02*
X102750000Y-159750000D01*
X77750000Y-59750000D02*
X77750000Y-159750000D01*
X152750000Y-159750000D02*
X52750000Y-159750000D01*
X152750000Y-154750000D02*
X52750000Y-154750000D01*
X152750000Y-124750000D02*
X52750000Y-124750000D01*
X152750000Y-94750000D02*
X52750000Y-94750000D01*
X152750000Y-64750000D02*
X52750000Y-64750000D01*
X152750000Y-59750000D02*
X52750000Y-59750000D01*
X152750000Y-59750000D02*
X152750000Y-159750000D01*
X52750000Y-59750000D02*
X52750000Y-159750000D01*
M02*
