G04 #@! TF.GenerationSoftware,KiCad,Pcbnew,(5.0.0-3-g5ebb6b6)*
G04 #@! TF.CreationDate,2018-09-11T22:07:12+09:00*
G04 #@! TF.ProjectId,panelising_topre_pad,70616E656C6973696E675F746F707265,rev?*
G04 #@! TF.SameCoordinates,Original*
G04 #@! TF.FileFunction,Legend,Bot*
G04 #@! TF.FilePolarity,Positive*
%FSLAX46Y46*%
G04 Gerber Fmt 4.6, Leading zero omitted, Abs format (unit mm)*
G04 Created by KiCad (PCBNEW (5.0.0-3-g5ebb6b6)) date 2018 September 11, Tuesday 22:07:12*
%MOMM*%
%LPD*%
G01*
G04 APERTURE LIST*
%ADD10C,0.100000*%
G04 APERTURE END LIST*
D10*
X52750000Y-75750000D02*
X77750000Y-75750000D01*
X74750000Y-94750000D02*
X74750000Y-75750000D01*
X55750000Y-94750000D02*
X55750000Y-75750000D01*
X77750000Y-75750000D02*
X102750000Y-75750000D01*
X99750000Y-94750000D02*
X99750000Y-75750000D01*
X80750000Y-94750000D02*
X80750000Y-75750000D01*
X102750000Y-75750000D02*
X127750000Y-75750000D01*
X124750000Y-94750000D02*
X124750000Y-75750000D01*
X105750000Y-94750000D02*
X105750000Y-75750000D01*
X52750000Y-105750000D02*
X77750000Y-105750000D01*
X74750000Y-124750000D02*
X74750000Y-105750000D01*
X55750000Y-124750000D02*
X55750000Y-105750000D01*
X77750000Y-105750000D02*
X102750000Y-105750000D01*
X99750000Y-124750000D02*
X99750000Y-105750000D01*
X80750000Y-124750000D02*
X80750000Y-105750000D01*
X102750000Y-105750000D02*
X127750000Y-105750000D01*
X124750000Y-124750000D02*
X124750000Y-105750000D01*
X105750000Y-124750000D02*
X105750000Y-105750000D01*
X127750000Y-75750000D02*
X152750000Y-75750000D01*
X149750000Y-94750000D02*
X149750000Y-75750000D01*
X130750000Y-94750000D02*
X130750000Y-75750000D01*
X127750000Y-105750000D02*
X152750000Y-105750000D01*
X149750000Y-124750000D02*
X149750000Y-105750000D01*
X130750000Y-124750000D02*
X130750000Y-105750000D01*
X52750000Y-135750000D02*
X77750000Y-135750000D01*
X74750000Y-154750000D02*
X74750000Y-135750000D01*
X55750000Y-154750000D02*
X55750000Y-135750000D01*
X77750000Y-135750000D02*
X102750000Y-135750000D01*
X99750000Y-154750000D02*
X99750000Y-135750000D01*
X80750000Y-154750000D02*
X80750000Y-135750000D01*
X102750000Y-135750000D02*
X127750000Y-135750000D01*
X124750000Y-154750000D02*
X124750000Y-135750000D01*
X105750000Y-154750000D02*
X105750000Y-135750000D01*
X127750000Y-135750000D02*
X152750000Y-135750000D01*
X149750000Y-154750000D02*
X149750000Y-135750000D01*
X130750000Y-154750000D02*
X130750000Y-135750000D01*
M02*
